<?xml version="1.0" standalone="no"?>
<!DOCTYPE svg PUBLIC "-//W3C//DTD SVG 20010904//EN"
 "http://www.w3.org/TR/2001/REC-SVG-20010904/DTD/svg10.dtd">
<svg version="1.0" xmlns="http://www.w3.org/2000/svg"
 width="180.000000pt" height="45.000000pt" viewBox="0 0 180.000000 45.000000"
 preserveAspectRatio="xMidYMid meet">
<metadata>
Created by potrace 1.10, written by Peter Selinger 2001-2011
</metadata>
<g transform="translate(0.000000,45.000000) scale(0.100000,-0.100000)"
fill="#ffffff" stroke="none">
<path d="M275 396 c-44 -19 -93 -80 -106 -131 -10 -38 -17 -47 -55 -66 -25
-11 -51 -18 -59 -15 -28 10 -15 -2 29 -28 74 -43 75 -43 253 87 100 73 126 88
168 97 29 6 29 7 -34 38 -71 35 -142 42 -196 18z m84 -20 c-24 -23 -172 -126
-176 -123 -16 16 53 98 97 116 24 9 88 15 79 7z m59 -15 c10 -6 -6 -22 -57
-60 -39 -28 -75 -51 -80 -51 -5 0 -11 -4 -13 -8 -6 -14 -75 -62 -89 -62 -11 0
37 50 76 78 6 4 30 22 55 40 25 18 52 41 60 52 16 22 28 24 48 11z"/>
<path d="M736 334 c-26 -25 -20 -82 10 -107 54 -45 65 -59 62 -74 -6 -31 -28
-26 -28 6 0 28 -3 31 -30 31 -26 0 -30 -4 -30 -28 0 -38 32 -66 75 -66 47 0
65 19 65 69 0 36 -5 48 -31 69 -17 14 -35 26 -40 26 -5 0 -9 11 -9 25 0 14 5
25 10 25 6 0 10 -9 10 -20 0 -16 7 -20 30 -20 25 0 30 4 30 23 0 13 -8 31 -18
40 -23 21 -86 22 -106 1z"/>
<path d="M888 225 l-3 -125 33 0 32 0 0 125 0 125 -29 0 -30 0 -3 -125z"/>
<path d="M980 348 c-1 -2 -2 -58 -3 -126 l-2 -122 28 0 27 0 1 83 c1 90 16 66
18 -30 1 -50 3 -53 26 -53 24 0 25 3 26 63 2 103 17 125 18 25 1 -87 1 -88 26
-88 l25 0 0 125 0 125 -39 0 -38 0 -8 -62 c-6 -51 -9 -58 -15 -38 -5 14 -8 42
-9 63 -1 36 -2 37 -41 37 -22 0 -40 -1 -40 -2z"/>
<path d="M1216 337 c-13 -10 -17 -24 -14 -57 3 -39 8 -48 41 -69 29 -19 37
-31 37 -54 0 -18 -4 -27 -12 -24 -7 2 -13 15 -13 28 0 19 -6 25 -28 27 -23 3
-27 0 -27 -22 0 -40 10 -54 45 -66 26 -8 40 -8 57 1 31 16 38 28 38 67 0 34
-21 61 -69 93 -17 10 -22 21 -18 32 9 23 27 21 27 -3 0 -16 7 -20 31 -20 29 0
31 2 25 28 -4 15 -14 33 -23 40 -22 16 -74 16 -97 -1z"/>
<path d="M1371 258 c-6 -51 -14 -108 -17 -125 -5 -31 -3 -33 25 -33 23 0 30 5
33 23 4 30 34 30 31 0 -2 -20 2 -23 32 -23 32 0 35 2 30 23 -5 22 -35 212 -35
222 0 3 -20 5 -44 5 l-43 0 -12 -92z m69 -29 c0 -38 -3 -49 -16 -49 -12 0 -15
6 -10 23 3 12 6 37 6 55 0 20 4 31 10 27 6 -3 10 -28 10 -56z"/>
<path d="M1490 325 c0 -18 5 -25 20 -25 19 0 20 -7 20 -100 l0 -100 30 0 30 0
0 100 c0 93 1 100 20 100 15 0 20 7 20 25 0 24 -2 25 -70 25 -68 0 -70 -1 -70
-25z"/>
<path d="M505 305 c-16 -9 -82 -54 -145 -100 -63 -47 -124 -88 -135 -90 -11
-2 -29 -6 -40 -7 -28 -5 57 -52 124 -69 68 -17 122 -1 178 55 31 32 44 54 49
85 8 48 34 71 92 80 l37 6 -49 28 c-55 31 -69 32 -111 12z m39 -37 c-16 -29
-40 -50 -69 -62 -17 -7 -62 -36 -101 -65 -67 -48 -94 -61 -94 -43 0 4 14 16
32 26 31 19 43 28 102 77 75 62 149 100 130 67z m-46 -105 c-29 -69 -93 -113
-160 -113 l-43 1 30 16 c17 9 62 40 100 69 39 30 73 54 77 54 4 0 2 -12 -4
-27z"/>
</g>
</svg>
